# xmcd
#
# Track frame offsets:
#   150
#   16886
#   39016
#   56845
#   90950
#   114365
#   135635
#   155163
#   173100
#   190957
#   215846
#   236674
#   264614
#   275957
#
# Disc length: 3960 seconds
#
# Revision: 0
# Processed by: cddbd v1.5.2PL0 Copyright (c) Steve Scherf et al.
# Submitted via: uFREEDB ActiveX Control 1.5
#
DISCID=c70f760e
DTITLE=Alda Célia - Posso ir além
DYEAR=1900
DGENRE=Gospel and Religious
TTITLE0=Explosão de louvor
TTITLE1=Face a face
TTITLE2=Haja luz
TTITLE3=Deus está presente
TTITLE4=Posso ir além
TTITLE5=Escrevendo a história de Deus
TTITLE6=Tua presença me cura
TTITLE7=Existe um Deus
TTITLE8=Está escrito
TTITLE9=Voz de Deus
TTITLE10=Adorar é amar
TTITLE11=Único
TTITLE12=Cântico espontâneo
TTITLE13=Pai nosso
EXTD=
EXTT0=
EXTT1=
EXTT2=
EXTT3=
EXTT4=
EXTT5=
EXTT6=
EXTT7=
EXTT8=
EXTT9=
EXTT10=
EXTT11=
EXTT12=
EXTT13=
PLAYORDER=
